<?xml version="1.0" encoding="utf-8"?>
<!-- Generator: Adobe Illustrator 12.0.0, SVG Export Plug-In . SVG Version: 6.00 Build 51448)  -->
<!DOCTYPE svg PUBLIC "-//W3C//DTD SVG 1.1//EN" "http://www.w3.org/Graphics/SVG/1.1/DTD/svg11.dtd" [
	<!ENTITY ns_svg "http://www.w3.org/2000/svg">
	<!ENTITY ns_xlink "http://www.w3.org/1999/xlink">
]>
<svg  version="1.1" id="Layer_1" xmlns="&ns_svg;" xmlns:xlink="&ns_xlink;" width="584.382" height="814.567"
	 viewBox="0 0 584.382 814.567" overflow="visible" enable-background="new 0 0 584.382 814.567" xml:space="preserve">
<g id="Layer_x0020_1">
	<path id="BG" fill="#FDF9CA" stroke="#BFA062" stroke-width="5" d="M23.57,2.5h537.242c11.637,0,21.07,9.434,21.07,21.067v767.428
		c0,11.639-9.434,21.072-21.07,21.072H23.57c-11.637,0-21.07-9.434-21.07-21.072V23.567C2.5,11.934,11.934,2.5,23.57,2.5z"/>
	<g id="FDiag">
		<polygon id="_6Humor" fill="#B6DDC7" points="504.377,702.495 503.827,688.464 507.958,682.956 501.347,656.824 466.694,632.345 
			410.574,640.865 378.658,689.566 388.281,733.034 440.553,762.472 500.522,742.657 509.327,708.271 		"/>
		<path id="_6Retina" fill="#FBED26" stroke="#F6C314" d="M391.035,708.829c1.48-1.222,3.288-5.182,2.737-8.107
			c1.704-15.683,4.425-33.431,16.492-44.775c11.706-11.001,26.243-17.13,42.71-17.13c7.505,0,16.147,1.757,24.462,4.683
			c0.913,0.327,2.729-0.345,3.615,0c6.206,2.428,11.404,8.194,14.624,12.773c3.451,4.89,3.073,12.602,2.97,19.521
			c2.048-1.411,1.472-1.566,3.528-2.979c-0.912-7.893-1.824-15.785-2.736-23.687c-15.262-7.679-30.522-15.355-45.783-23.033
			c-15.037,3.683-30.066,7.351-45.094,11.034c-11.397,18.386-22.775,36.771-34.172,55.156c-0.681,3.349,1.033,4.751,0.344,8.108
			c2.394,8.538,4.786,17.085,7.18,25.633c14.684,11.345,26.992,24.651,41.676,36.013c17.99-1.084,35.988-2.169,53.986-3.253
			c7.506-7.679,15.028-15.355,22.543-23.033c-0.232-5.509-0.457-11.035-0.68-16.544c-2.049,5.836-0.577,13.212-5.147,17.576
			c-4.76,4.563-10.519,10.905-17.232,13.686c-0.817,0.346-3.934-0.068-4.769,0.225c-3.339,1.222-5.664,1.67-9.072,2.117
			c-13.323,1.79-28.267-0.353-39.972-6.679c-12.086-6.524-19.91-19.35-25.376-31.143
			C396.854,712.136,394.943,709.854,391.035,708.829L391.035,708.829z"/>
		<path id="_6OpticNerve" fill="#B98FB9" stroke="#974678" stroke-width="0.75" d="M303.326,724.341l1.376,7.247
			c23.877-5.604,49.028-11.758,73.009-17.387c5.526-1.36,14.599,8.298,16.716,11.551c-1.11-3.452-7.901-11.628-11.965-12.652
			c2.721-0.104,5.655,1.187,7.772,2.702c2.487,1.765,3.486,5.612,5.458,8.177c-0.629-1.188-1.188-3.271-1.825-4.458
			c0.887,0.31,1.729,1.032,2.616,1.343c-1.136-0.793-2.116-1.799-3.253-2.582c-0.56-1.067-1.223-2.188-2.126-2.944
			c-1.808-1.532-4.579-2.823-6.912-3.684c1.954-0.259,4.64,0.232,6.481,0.852c1.145,0.388,2.031,1.679,3.047,2.35
			c-0.946-1.127-1.67-2.427-2.909-3.185c-1.411-0.869-3.598-1.532-5.354-1.325c1.102-0.81,3.029-2.47,3.478-3.873
			c0.68-2.152,1.015-4.407,1.515-6.61c-1.084,2.581-1.652,5.731-3.529,7.807c-0.774,0.843-3.684,2.022-5.337,1.867
			c3.013-2.065,6.293-6.111,7.239-9.95c0.56-2.29,0.766-3.356,1.146-5.715c-0.319,1.188-1.067,3.245-1.67,4.114
			c-0.362-1.412-0.836-4.872-1.197-6.274c0.112,1.678,0.438,3.357,0.345,5.035c-0.078,1.446,0.206,1.704-0.525,4.148
			c-0.474,1.618-3.374,4.072-5.044,5.026c1.602-1.687,3.322-8.538,2.453-14.908c-0.284,3.073-0.206,12.93-5.759,15.605
			L303.326,724.341z"/>
		<path id="_6NerveLines" fill="none" stroke="#974678" stroke-width="0.75" d="M388.229,701.341
			c-1.076,2.187-5.027,6.267-8.16,6.989l-76.657,17.801 M381.971,709.363l-78.216,18.059 M384.708,711.602
			c-1.471-0.456-3.398-0.568-5.594-0.068l-75.419,17.593"/>
		<polygon id="_6Aqueous" fill="#EEF3F5" points="518.158,672.051 506.288,667.445 506.529,727.267 518.88,720.726 524.45,696.263 
					"/>
		
			<linearGradient id="_6Body_1_" gradientUnits="userSpaceOnUse" x1="119.2285" y1="573.6729" x2="95.8787" y2="623.4855" gradientTransform="matrix(3.367 0 0 -3.367 48.7102 2714.5645)">
			<stop  offset="0" style="stop-color:#E6E5E5"/>
			<stop  offset="1" style="stop-color:#D2D1D1"/>
		</linearGradient>
		<path id="_6Body" fill="url(#_6Body_1_)" stroke="#ABA9A9" d="M511.522,727.861l-0.354-0.009
			c-11.509,24.668-38.139,41.771-65.546,41.771c-27.405,0-52.264-17.558-65.054-37.897c-2.179-2.256-4.468-7.247-8.453-7.609
			c-14.409-1.299-38.966,5.664-66.347,11.603l-0.895-4.63l70.34-16.682c5.095-0.232,9.106,1.103,11.224,3.771
			c10.313,23.352,22.285,39.008,60.976,42.176c26.622,2.178,39.268-10.476,50.767-23.567c1.257-5.99,1.601-11.378-0.509-17.524
			c1.249,0.061,2.488,0.121,3.745,0.172c0,1.954,0.774,3.599,1.858,5.165c2.815-5.999,3.926-11.999,4.545-18.007
			c1.085-1.79,1.929-1.566,2.531,0.671c-0.422,5.476-0.93,10.949-1.722,16.423c7.592-1.721,13.444-13.117,13.444-26.906
			c0-14.082-6.11-25.668-13.926-27.027c0.739,5.233,1.222,10.45,1.617,15.666c-0.603,2.255-1.445,2.479-2.53,0.68
			c-0.533-5.139-1.42-10.277-3.426-15.416c-1.033,1.515-1.747,3.116-1.747,4.992c-1.248,0.052-2.487,0.112-3.744,0.173
			c2.16-6.31,1.799-11.827,0.481-17.973c-11.499-13.515-21.036-24.29-48.227-24.29c-52.489,0-69.179,45.602-68.653,63.385
			c0.181,6.163-0.783,8.951-8.091,10.966l-70.134,17.111l-0.921-4.751c23.464-6.352,50.062-11.293,64.427-17.973
			c5.07-2.357,6.585-8.16,6.542-12.145c4.183-36.557,39.706-65.133,71.88-65.133c34.25,0,53.194,16.182,64.936,40.258l0.964,0.343
			c8.298,3.108,15.036,13.937,15.036,31.108C526.558,713.925,519.82,725.271,511.522,727.861z"/>
		<path id="_6Cornea" fill="#FFFFFF" stroke="#ABA9A9" d="M508.388,724.307c7.756-1.773,13.548-13.11,13.548-27.07
			c0-13.971-6.06-25.573-13.892-27.243l-0.043-0.087l2.125-4.492v0.017l0.999,0.345c8.504,3.142,15.407,14.082,15.407,31.435
			c0,17.31-6.86,28.748-15.329,31.416L508.388,724.307L508.388,724.307z"/>
		
			<radialGradient id="_6Lens_1_" cx="133.5142" cy="600.4033" r="6.7663" gradientTransform="matrix(3.367 0 0 -3.367 48.7102 2714.5645)" gradientUnits="userSpaceOnUse">
			<stop  offset="0" style="stop-color:#F2F9F5"/>
			<stop  offset="1" style="stop-color:#8CACBC"/>
		</radialGradient>
		<path id="_6Lens" fill="url(#_6Lens_1_)" stroke="#4B5777" d="M500.315,674.934c4.364,0,7.901,10.397,7.901,23.224
			c0,12.824-3.537,23.222-7.901,23.222c-4.372,0-7.919-10.397-7.919-23.222C492.396,685.331,495.943,674.934,500.315,674.934z"/>
	</g>
	<g id="FGrad">
		<polygon id="_135124240" fill="#FDF9CA" fill-opacity="0.2" points="283.493,688.172 331.936,678.497 347.481,756.309 
			299.039,765.992 		"/>
		<polygon id="_135123488" fill="#FDF9CA" fill-opacity="0.302" points="280.438,688.172 328.889,678.497 344.434,756.309 
			295.984,765.992 		"/>
		<polygon id="_135122736" fill="#FDF9CA" fill-opacity="0.302" points="277.176,688.172 325.619,678.497 341.164,756.309 
			292.721,765.992 		"/>
		<polygon id="_135121984" fill="#FDF9CA" fill-opacity="0.4" points="273.509,688.172 321.96,678.497 337.505,756.309 
			289.055,765.992 		"/>
		<polygon id="_135121232" fill="#FDF9CA" fill-opacity="0.502" points="269.851,688.172 318.302,678.497 333.847,756.309 
			285.387,765.992 		"/>
		<polygon id="_135118016" fill="#FDF9CA" points="265.969,688.172 314.429,678.497 329.974,756.309 281.514,765.992 		"/>
	</g>
	<text id="LabelF" transform="matrix(1 0 0 1 376.5649 586.1836)" fill="#201B17" font-family="'Georgia-Italic'" font-size="14">f) Iris and separate</text>
	
		<text id="LabelF_1_" transform="matrix(1 0 0 1 376.5649 602.8418)" fill="#201B17" font-family="'Georgia-Italic'" font-size="14">    cornea develop</text>
	<g id="EDiag">
		<polygon id="_5Humor" fill="#B6DDC7" points="224.911,702.495 224.361,688.464 228.484,682.956 221.881,656.824 187.219,632.345 
			131.1,640.865 99.192,689.566 108.815,733.034 161.079,762.472 221.056,742.657 229.861,708.271 		"/>
		<path id="_5Retina" fill="#FBED26" stroke="#F6C314" d="M111.569,708.829c1.481-1.222,3.289-5.182,2.729-8.107
			c1.713-15.683,4.433-33.431,16.501-44.775c11.697-11.001,26.235-17.13,42.709-17.13c7.505,0,16.148,1.757,24.462,4.683
			c0.913,0.327,2.721-0.345,3.615,0c6.197,2.428,9.951,9.52,14.624,12.773c10.596,7.386,4.054,6.766,2.471-6.92
			c-15.261-7.678-29.231-15.579-44.5-23.257c-15.029,3.683-30.058,7.351-45.085,11.034c-11.397,18.386-22.785,36.771-34.172,55.156
			c-0.688,3.349,1.024,4.751,0.345,8.108c2.393,8.538,4.786,17.085,7.179,25.633c14.685,11.345,26.984,24.651,41.677,36.013
			c17.99-1.084,35.979-2.169,53.978-3.253c7.514-7.679,15.037-15.355,22.552-23.033c2.384-2.91,2.832-7.248-5.828,1.032
			c-4.769,4.563-10.527,10.905-17.232,13.686c-0.827,0.346-3.942-0.068-4.769,0.225c-3.339,1.222-5.664,1.67-9.072,2.117
			c-13.324,1.79-28.267-0.353-39.973-6.679c-12.085-6.524-19.918-19.35-25.375-31.143
			C117.388,712.136,115.468,709.854,111.569,708.829z"/>
		<path id="_5Body" fill="#DEDEDD" stroke="#ABA9A9" d="M236.377,727.853c-5.759,12.334-11.483,54.433-22.715,61.783
			c-33.578,22.019-121.288,2.651-160.322,6.387l-27.036-60.304l-0.904-4.63l70.349-16.682c5.095-0.232,9.098,1.103,11.224,3.771
			c10.312,23.352,22.276,39.008,60.975,42.176c26.623,2.178,39.267-10.476,50.767-23.567c6.499-8.856,8.177-14.09,9.64-28.181
			c1.084-1.799,1.928-1.574,2.531,0.672C231.763,715.698,239.294,715.725,236.377,727.853z M230.3,681.131
			c-0.603,2.255-1.446,2.479-2.531,0.681c-3.546-18.016-4.656-16.914-8.443-23.938c-11.5-13.515-21.028-24.29-48.228-24.29
			c-52.487,0-69.177,45.602-68.652,63.385c0.189,6.163-0.775,8.951-8.091,10.966l-70.133,17.111l0.344-122.578l142.504-1.283
			c20.761-0.188,37.055,3.4,48.417,14.022c6.816,6.369,14.934,33.853,14.658,45.809C232.021,667.325,231.066,673.918,230.3,681.131z
			"/>
		<path id="_5Cornea" fill="#FFFFFF" stroke="#ABA9A9" d="M205.347,793.217c13.075-5.327,26.984-58.065,25.572-97.401
			c-1.411-39.345-20.417-87.124-33.964-91.48l9.279-1.17l0.008,0.043l1.73,0.938c14.848,8.521,29.042,42.589,30.789,91.428
			c1.747,48.838-8.823,89.999-23.025,97.85L205.347,793.217z"/>
		
			<radialGradient id="_5Lens_1_" cx="45.9663" cy="601.7168" r="6.7673" gradientTransform="matrix(3.367 0 0 -3.367 48.7102 2714.5645)" gradientUnits="userSpaceOnUse">
			<stop  offset="0" style="stop-color:#F1F9F4"/>
			<stop  offset="1" style="stop-color:#8CACB9"/>
		</radialGradient>
		<path id="_5Lens" fill="url(#_5Lens_1_)" stroke="#4B5777" d="M209.271,662.341c12.327,0,22.319,15.089,22.319,33.69
			c0,18.6-9.993,33.68-22.319,33.68c-12.316,0-22.31-15.08-22.31-33.68C186.961,677.43,196.955,662.341,209.271,662.341z"/>
		<path id="_5OpticNerve" fill="#B98FB9" stroke="#974678" stroke-width="0.75" d="M24.308,724.22l1.376,7.248
			c23.877-5.595,49.028-11.75,73.009-17.37c5.525-1.378,14.598,8.298,16.724,11.551c-1.12-3.46-7.91-11.637-11.973-12.652
			c2.72-0.112,5.655,1.179,7.781,2.686c2.479,1.773,3.477,5.629,5.448,8.194c-0.627-1.188-1.188-3.288-1.824-4.477
			c0.887,0.31,1.73,1.033,2.617,1.352c-1.137-0.783-2.109-1.799-3.253-2.582c-0.56-1.059-1.222-2.187-2.126-2.953
			c-1.808-1.514-4.579-2.806-6.912-3.666c1.954-0.258,4.64,0.224,6.481,0.844c1.145,0.387,2.031,1.678,3.046,2.357
			c-0.946-1.136-1.669-2.427-2.909-3.184c-1.411-0.878-3.598-1.541-5.354-1.326c1.102-0.817,3.03-2.479,3.478-3.873
			c0.688-2.152,1.016-4.407,1.515-6.619c-1.084,2.591-1.652,5.74-3.529,7.808c-0.774,0.843-3.685,2.03-5.336,1.867
			c3.013-2.065,6.292-6.104,7.238-9.95c0.56-2.281,0.766-3.365,1.145-5.715c-0.318,1.195-1.067,3.244-1.67,4.114
			c-0.362-1.403-0.834-4.863-1.196-6.275c0.112,1.687,0.439,3.356,0.345,5.044c-0.078,1.446,0.207,1.704-0.517,4.148
			c-0.482,1.618-3.383,4.063-5.044,5.01c1.592-1.678,3.314-8.521,2.444-14.899c-0.284,3.073-0.207,12.92-5.758,15.605L24.308,724.22
			z"/>
		<path id="_5NerveLines" fill="none" stroke="#974678" stroke-width="0.75" d="M108.917,701.341
			c-1.084,2.187-5.189,6.267-8.314,6.989l-76.666,17.801 M102.497,709.363L24.29,727.422 M105.234,711.602
			c-1.463-0.456-3.4-0.568-5.596-0.068l-75.417,17.593"/>
	</g>
	<g id="EGrad">
		<path id="_135106384" fill="#FDF9CA" fill-opacity="0.102" d="M232.538,604.129l3.804,22.061
			c-38.147-1.815-82.992-10.612-112.912,10.338c-18.919,13.247-21.889,29.145-38.019,45.258
			c-10.475,10.467-22.595,10.312-34.042,19.866c-10.639,8.883-0.585,33.181,12.171,34.24c12.145,1.016,20.193,1.36,30.996,6.602
			c14.064,6.826,16.035,18.808,31.554,21.889c42.41,8.418,81.521,6.748,126.969,1.051l3.046,38.475l-234.681-1.755l0.379-197.421
			L232.538,604.129z"/>
		<path id="_135105264" fill="#FDF9CA" fill-opacity="0.102" d="M232.538,604.129l6.816,19.823
			c-39.387-1.886-85.713-10.958-116.622,10.682c-19.53,13.678-22.612,30.101-39.267,46.738
			c-10.819,10.811-22.767,11.069-34.593,20.95c-10.983,9.176-0.603,34.258,12.567,35.36c12.549,1.041,20.287,0.98,31.451,6.403
			c14.53,7.059,16.561,19.418,32.588,22.604c43.812,8.692,84.197,6.972,131.151,1.085l-0.525,36.133l-234.681-1.755l0.379-197.421
			L232.538,604.129z"/>
		<path id="_135104280" fill="#FDF9CA" fill-opacity="0.149" d="M232.538,604.129l9.674,17.705
			c-40.584-1.937-88.294-11.284-120.134,11.01c-20.124,14.082-23.292,31.004-40.446,48.149
			c-11.155,11.139-22.896,11.465-35.075,21.631c-11.319,9.451-0.629,35.299,12.945,36.435c12.92,1.068,20.331,0.947,31.83,6.524
			c14.969,7.265,17.068,20.013,33.578,23.292c45.12,8.951,86.728,7.178,135.103,1.118l-3.909,33.914l-234.681-1.755l0.379-197.421
			L232.538,604.129z"/>
		<path id="_135103296" fill="#FDF9CA" fill-opacity="0.102" d="M232.538,604.129l13.143,15.141
			c-42.03-2.005-91.437-11.688-124.403,11.388c-20.83,14.599-24.118,32.114-41.884,49.871
			c-11.542,11.526-23.196,11.93-35.807,22.466c-11.714,9.786-0.637,36.555,13.411,37.718c13.376,1.119,20.537,0.912,32.45,6.697
			c15.493,7.521,17.662,20.727,34.765,24.117c46.73,9.27,89.818,7.437,139.896,1.152l-8.005,31.229l-234.681-1.755l0.379-197.421
			L232.538,604.129L232.538,604.129z"/>
		<path id="_135102312" fill="#FDF9CA" fill-opacity="0.149" d="M232.538,604.129l15.751,13.204
			c-43.105-2.057-93.795-11.99-127.613,11.688c-21.373,14.969-24.737,32.94-42.96,51.146
			c-11.843,11.827-24.342,12.309-37.279,23.103c-12.015,10.045-0.654,37.503,13.754,38.698c13.729,1.137,21.623,0.887,33.837,6.817
			c15.897,7.712,18.118,21.252,35.66,24.737c47.935,9.513,92.134,7.628,143.502,1.188l-11.086,29.196l-234.681-1.755l0.379-197.421
			L232.538,604.129z"/>
		<path id="_135101328" fill="#FDF9CA" fill-opacity="0.2" d="M232.538,604.129l18.213,11.379
			c-44.122-2.1-96.025-12.274-130.635,11.964c-21.888,15.321-25.332,33.725-43.993,52.368
			c-12.119,12.102-24.704,12.979-37.941,24.032c-12.309,10.276-0.68,38.39,14.073,39.619c14.056,1.162,21.923,0.525,34.429,6.585
			c16.277,7.901,18.55,21.759,36.505,25.324c49.079,9.742,94.32,7.814,146.911,1.221l-13.996,27.286l-234.681-1.755l0.379-197.421
			L232.538,604.129L232.538,604.129z"/>
		<path id="_135100344" fill="#FDF9CA" fill-opacity="0.251" d="M232.538,604.129l21.079,9.193
			c-45.361-2.17-98.701-12.619-134.276,12.291c-22.491,15.752-26.037,34.671-45.214,53.822
			c-12.464,12.446-25.392,13.35-39.009,24.712c-12.644,10.561-0.688,39.457,14.478,40.713c14.443,1.205,22.535,0.533,35.385,6.782
			c16.725,8.108,19.066,22.362,37.52,26.021c50.439,10.011,96.946,8.03,151,1.248l-17.396,24.996l-234.681-1.755l0.379-197.421
			L232.538,604.129z"/>
		<path id="_135099360" fill="#FDF9CA" fill-opacity="0.251" d="M232.538,604.129l23.326,7.472
			c-46.325-2.222-100.793-12.894-137.133,12.55c-22.973,16.095-26.588,35.411-46.179,54.967
			c-12.73,12.722-25.934,13.634-39.834,25.236c-12.92,10.794-0.715,40.3,14.779,41.592c14.753,1.223,23.016,0.542,36.134,6.921
			c17.085,8.287,19.486,22.834,38.337,26.579c51.506,10.225,99.002,8.194,154.21,1.273l-20.073,23.188l-234.681-1.755l0.379-197.421
			L232.538,604.129z"/>
		<path id="_135098376" fill="#FDF9CA" fill-opacity="0.302" d="M232.538,604.129l23.326,7.472
			c-46.325-2.222-100.793-12.894-137.133,12.55c-22.973,16.095-26.588,35.411-46.179,54.967
			c-12.73,12.722-25.934,13.634-39.834,25.236c-12.92,10.794-0.715,40.3,14.779,41.592c14.753,1.223,23.016,0.542,36.134,6.921
			c17.085,8.287,19.486,22.834,38.337,26.579c51.506,10.225,99.002,8.194,154.21,1.273l-20.073,23.188l-234.681-1.755l0.379-197.421
			L232.538,604.129z"/>
		<path id="_135098336" fill="#FDF9CA" d="M232.968,599.55l24.635,10.726c-47.083-2.256-102.42-13.102-139.337,12.755
			c-23.344,16.347-27.019,35.971-46.927,55.846c-12.929,12.919-26.347,13.858-40.473,25.649
			c-13.118,10.958-0.723,40.938,15.011,42.246c14.995,1.247,23.396,0.561,36.729,7.031c17.353,8.429,19.788,23.207,38.94,27.002
			c52.341,10.397,100.595,8.34,156.689,1.31l-22.13,21.793l-234.681-1.755l0.379-201.587L232.968,599.55z"/>
	</g>
	<text id="LabelE" transform="matrix(1 0 0 1 69.4756 586.1836)" fill="#201B17" font-family="'Georgia-Italic'" font-size="14">e) Distinct lens develops</text>
	<g id="DDiag">
		<path id="_4Cornea" fill="#FFFFFF" stroke="#ABA9A9" d="M483.953,516.031c13.203-4.982,28.249-51.911,27.861-91.28
			c-0.379-39.362-16.939-84.112-30.367-88.829l7.627,0.017c14.632,8.9,28.138,39.87,28.61,88.725
			c0.482,48.864-13.47,84.25-27.87,91.729L483.953,516.031z"/>
		<path id="_4Humor" fill="#B6DDC7" stroke="#4B5777" stroke-width="0.0529" d="M510.179,410.635l-4.648-32.674l-38.562-17.938
			l-56.12,8.522l-31.916,48.701l9.623,43.467l52.28,29.438l67.655-20.383l3.064-33.818
			C511.728,428.452,511.78,420.318,510.179,410.635z"/>
		<path id="_4Retina" fill="#FBED26" stroke="#F6C314" d="M391.31,436.508c1.48-1.222,3.288-5.182,2.737-8.108
			c1.705-15.683,4.424-33.431,16.491-44.775c11.706-11,26.253-17.129,42.71-17.129c7.507,0,16.157,1.755,24.463,4.683
			c0.921,0.327,2.737-0.344,3.615,0c6.215,2.427,9.958,9.52,14.633,12.773c10.604,7.385,4.045,6.756,2.471-6.921
			c-15.261-7.678-29.239-15.579-44.492-23.257c-15.037,3.685-30.074,7.351-45.104,11.035
			c-11.388,18.385-22.774,36.771-34.162,55.156c-0.681,3.349,1.023,4.752,0.335,8.107c2.393,8.539,4.786,17.087,7.179,25.634
			c14.692,11.344,26.993,24.651,41.678,36.004c17.998-1.075,35.996-2.159,53.986-3.244c7.513-7.678,15.027-15.356,22.551-23.033
			c2.384-2.909,2.832-7.248-5.827,1.032c-4.769,4.562-10.527,10.905-17.232,13.687c-0.817,0.344-3.934-0.069-4.776,0.224
			c-3.34,1.213-5.656,1.661-9.064,2.117c-13.333,1.79-28.275-0.353-39.973-6.68c-12.093-6.533-19.918-19.35-25.384-31.141
			C397.128,439.813,395.218,437.524,391.31,436.508L391.31,436.508z"/>
		<path id="_4Body" fill="#DEDEDD" stroke="#ABA9A9" d="M483.358,517.521c-37.598,17.49-114.28,2.738-150.269,6.182l-27.045-60.305
			l-0.895-4.631l70.34-16.689c5.096-0.232,9.106,1.11,11.225,3.778c10.312,23.353,22.293,39.009,60.975,42.177
			c26.631,2.169,39.267-10.476,50.766-23.567c6.508-8.865,8.194-14.099,9.649-28.18c1.076-1.8,1.919-1.576,2.522,0.671
			C516.229,453.826,502.045,508.811,483.358,517.521z M510.041,408.81c-0.603,2.255-1.445,2.479-2.521,0.671
			c-3.538-18.006-4.656-16.905-8.443-23.937c-11.5-13.504-21.037-24.282-48.219-24.282c-52.489,0-69.187,45.602-68.653,63.386
			c0.181,6.162-0.792,8.951-8.091,10.966l-73.171,17.126l6.842-123.445c39.74-0.723,130.644-4.261,166.838,0.689
			c11.457,1.575,18.515,14.03,23.886,21.535C507.201,363.655,511.796,392.438,510.041,408.81L510.041,408.81z"/>
		<path id="_4OpticNerve" fill="#B98FB9" stroke="#974678" stroke-width="0.75" d="M304.065,451.898l1.369,7.247
			c23.886-5.595,49.028-11.749,73.008-17.379c5.526-1.367,14.599,8.307,16.725,11.561c-1.119-3.461-7.91-11.638-11.981-12.653
			c2.737-0.112,5.663,1.18,7.781,2.686c2.479,1.773,3.478,5.63,5.457,8.194c-0.637-1.188-1.188-3.288-1.825-4.476
			c0.887,0.311,1.73,1.033,2.617,1.352c-1.137-0.783-2.118-1.8-3.254-2.591c-0.568-1.051-1.222-2.187-2.126-2.944
			c-1.816-1.515-4.588-2.814-6.912-3.666c1.945-0.259,4.64,0.224,6.473,0.843c1.153,0.388,2.031,1.679,3.048,2.359
			c-0.939-1.137-1.67-2.429-2.901-3.194c-1.42-0.869-3.598-1.531-5.354-1.316c1.109-0.817,3.021-2.479,3.469-3.873
			c0.688-2.152,1.016-4.416,1.532-6.619c-1.094,2.591-1.653,5.741-3.547,7.807c-0.757,0.844-3.684,2.022-5.327,1.868
			c3.004-2.066,6.291-6.103,7.238-9.959c0.568-2.272,0.757-3.357,1.145-5.707c-0.318,1.196-1.075,3.245-1.67,4.105
			c-0.361-1.403-0.834-4.854-1.196-6.267c0.112,1.68,0.431,3.357,0.345,5.044c-0.086,1.446,0.206,1.705-0.517,4.149
			c-0.482,1.618-3.392,4.063-5.044,5.01c1.592-1.679,3.314-8.521,2.444-14.899c-0.293,3.072-0.206,12.92-5.75,15.604
			L304.065,451.898z"/>
		<path id="_4NerveLines" fill="none" stroke="#974678" stroke-width="0.75" d="M388.66,429.02
			c-1.067,2.187-5.182,6.267-8.315,6.989l-76.657,17.801 M382.247,437.042l-78.216,18.05 M384.984,439.279
			c-1.472-0.464-3.4-0.567-5.586-0.068l-75.427,17.594"/>
	</g>
	<g id="DGrad">
		<path id="_135083936" fill="#FDF9CA" fill-opacity="0.102" d="M511.108,332.702l3.805,22.052
			C476.773,352.93,431.92,344.15,402,365.101c-18.901,13.238-21.88,29.136-38.011,45.25c-10.483,10.457-22.603,10.312-34.042,19.874
			c-10.639,8.883-0.585,33.173,12.163,34.232c12.152,1.006,20.192,1.351,31.004,6.602c14.063,6.834,16.035,18.799,31.555,21.88
			c42.408,8.418,81.512,6.757,126.968,1.059l3.047,38.484l-234.682-1.773l0.379-197.42L511.108,332.702L511.108,332.702z"/>
		<path id="_135082952" fill="#FDF9CA" fill-opacity="0.102" d="M511.108,332.702l6.835,19.815
			c-39.405-1.885-85.73-10.966-116.631,10.673c-19.538,13.686-22.604,30.109-39.267,46.755
			c-10.829,10.812-22.775,11.069-34.593,20.934c-10.992,9.176-0.612,34.274,12.566,35.368c12.55,1.041,20.288,0.981,31.442,6.404
			c14.53,7.049,16.569,19.426,32.605,22.603c43.803,8.702,84.197,6.98,131.142,1.093l-0.524,36.135l-234.682-1.773l0.379-197.42
			L511.108,332.702z"/>
		<path id="_135081960" fill="#FDF9CA" fill-opacity="0.149" d="M511.108,332.702l9.684,17.697
			c-40.584-1.936-88.304-11.293-120.134,11c-20.124,14.099-23.292,31.013-40.454,48.15c-11.146,11.138-22.896,11.465-35.067,21.639
			c-11.319,9.451-0.619,35.3,12.945,36.427c12.929,1.076,20.331,0.956,31.83,6.542c14.96,7.265,17.061,20.004,33.57,23.274
			c45.137,8.969,86.744,7.195,135.102,1.128l-3.899,33.922l-234.682-1.773l0.379-197.42L511.108,332.702z"/>
		<path id="_135080976" fill="#FDF9CA" fill-opacity="0.102" d="M511.108,332.702l13.152,15.132
			c-42.021-2.014-91.436-11.689-124.403,11.396c-20.838,14.581-24.108,32.106-41.883,49.854
			c-11.543,11.534-23.197,11.947-35.799,22.474c-11.724,9.787-0.654,36.556,13.393,37.727c13.394,1.102,20.556,0.912,32.459,6.696
			c15.494,7.523,17.671,20.71,34.766,24.102c46.721,9.278,89.81,7.445,139.889,1.17l-7.997,31.229l-234.682-1.773l0.379-197.42
			L511.108,332.702z"/>
		<path id="_135079856" fill="#FDF9CA" fill-opacity="0.149" d="M511.108,332.702l15.761,13.195
			c-43.114-2.057-93.795-11.99-127.604,11.689c-21.382,14.969-24.739,32.941-42.969,51.146c-11.844,11.835-24.342,12.3-37.271,23.11
			c-12.033,10.036-0.671,37.494,13.746,38.69c13.729,1.145,21.613,0.887,33.836,6.817c15.89,7.721,18.119,21.251,35.66,24.729
			c47.935,9.52,92.126,7.635,143.504,1.197l-11.087,29.205l-234.682-1.773l0.379-197.42L511.108,332.702z"/>
		<path id="_135075744" fill="#FDF9CA" fill-opacity="0.2" d="M511.108,332.702l18.231,11.371
			c-44.139-2.109-96.025-12.274-130.644,11.964c-21.889,15.33-25.323,33.724-43.992,52.359
			c-12.129,12.119-24.713,12.979-37.951,24.049c-12.309,10.277-0.671,38.389,14.082,39.611c14.048,1.171,21.923,0.517,34.43,6.594
			c16.269,7.9,18.549,21.751,36.513,25.322c49.062,9.735,94.32,7.808,146.911,1.214l-14.004,27.295l-234.682-1.773l0.379-197.42
			L511.108,332.702z"/>
		<path id="_135074760" fill="#FDF9CA" fill-opacity="0.251" d="M511.108,332.702l21.088,9.185
			c-45.36-2.169-98.691-12.619-134.274,12.3c-22.5,15.751-26.029,34.653-45.216,53.813c-12.455,12.446-25.4,13.342-39,24.704
			c-12.652,10.57-0.706,39.456,14.461,40.721c14.443,1.196,22.534,0.543,35.394,6.774c16.715,8.125,19.065,22.362,37.52,26.029
			c50.439,10.01,96.945,8.03,151.001,1.256l-17.396,24.997l-234.682-1.773l0.379-197.42L511.108,332.702z"/>
		<path id="_24510448" fill="#FDF9CA" fill-opacity="0.251" d="M511.108,332.702l23.335,7.454
			c-46.325-2.203-100.801-12.876-137.143,12.567c-22.964,16.079-26.579,35.394-46.17,54.967
			c-12.722,12.705-25.942,13.626-39.835,25.237c-12.92,10.785-0.706,40.291,14.771,41.573c14.762,1.23,23.016,0.551,36.151,6.921
			c17.077,8.298,19.47,22.844,38.32,26.579c51.506,10.226,99.011,8.212,154.219,1.291l-20.072,23.189l-234.682-1.773l0.379-197.42
			L511.108,332.702z"/>
		<path id="_24508944" fill="#FDF9CA" fill-opacity="0.302" d="M511.108,332.702l23.335,7.454
			c-46.325-2.203-100.801-12.876-137.143,12.567c-22.964,16.079-26.579,35.394-46.17,54.967
			c-12.722,12.705-25.942,13.626-39.835,25.237c-12.92,10.785-0.706,40.291,14.771,41.573c14.762,1.23,23.016,0.551,36.151,6.921
			c17.077,8.298,19.47,22.844,38.32,26.579c51.506,10.226,99.011,8.212,154.219,1.291l-20.072,23.189l-234.682-1.773l0.379-197.42
			L511.108,332.702z"/>
		<path id="_24508560" fill="#FDF9CA" d="M511.547,325.274l24.626,13.557c-47.065-2.237-102.411-13.083-139.337,12.765
			c-23.344,16.346-27.011,35.97-46.911,55.853c-12.937,12.911-26.355,13.841-40.48,25.633c-13.126,10.966-0.723,40.955,15.02,42.254
			c14.986,1.249,23.378,0.56,36.72,7.033c17.353,8.426,19.78,23.205,38.94,27.01c52.333,10.38,95.112,8.332,151.206,1.291
			l-16.655,21.812l-234.673-1.773l0.379-204.427L511.547,325.274z"/>
	</g>
	<text id="LabelD" transform="matrix(1 0 0 1 338.8931 307.2896)" fill="#201B17" font-family="'Georgia-Italic'" font-size="14">d) Transparent humor develops</text>
	
		<text id="LabelD_1_" transform="matrix(1 0 0 1 338.8931 323.9331)" fill="#201B17" font-family="'Georgia-Italic'" font-size="14">     in enclosed chamber</text>
	<g id="CDiag">
		<path id="_3Retina" fill="#FBED26" stroke="#F6C314" d="M110.915,435.26c1.48-1.213,3.288-5.173,2.737-8.116
			c1.704-15.675,4.424-33.432,16.491-44.768c11.707-10.992,26.253-17.121,42.71-17.121c7.506,0,16.156,1.756,24.462,4.675
			c0.921,0.318,3.081,0.798,3.959,1.143c6.214,2.427,9.615,8.368,14.289,11.631c10.604,7.393,4.046,6.756,2.47-6.929
			c-15.261-7.678-29.239-15.562-44.492-23.24c-15.037,3.667-30.074,7.351-45.103,11.026c-11.388,18.385-22.775,36.762-34.163,55.147
			c-0.68,3.357,1.024,4.769,0.336,8.117c2.393,8.547,4.785,17.086,7.178,25.624c14.693,11.361,26.993,24.66,41.677,36.013
			c17.998-1.084,35.997-2.16,53.986-3.236c7.515-7.677,15.028-15.355,22.551-23.033c2.384-2.927,2.832-7.265-5.827,1.033
			c-4.76,4.563-10.527,10.896-17.232,13.686c-0.817,0.344-3.933-0.086-4.777,0.224c-3.34,1.205-5.656,1.653-9.064,2.118
			c-13.333,1.79-28.275-0.361-39.972-6.68c-12.094-6.542-19.909-19.366-25.383-31.15
			C116.742,438.574,114.822,436.285,110.915,435.26z"/>
		<path id="_3Body" fill="#DEDEDD" stroke="#ABA9A9" d="M219.876,514.818c-3.589,2.35-10.027,5.405-15.037,5.758
			c-43.623,3.082-117.285-1.454-152.145,1.886L25.65,462.158l-0.896-4.647l70.349-16.682c5.087-0.225,9.098,1.11,11.216,3.787
			c10.311,23.343,22.293,39.009,60.975,42.168c26.63,2.177,39.266-10.476,50.767-23.567c6.507-8.856,8.503-19.271,12.532-32.217
			c1.084-1.791,3.934-2.136,4.536,0.104C242.023,450.925,234.604,505.161,219.876,514.818L219.876,514.818z M232.365,405.788
			c-0.603,2.246-3.158,2.471-4.243,0.672c-2.832-11.99-5.019-15.347-9.442-22.165c-11.5-13.497-21.037-24.273-48.219-24.273
			c-52.488,0-69.187,45.594-68.653,63.386c0.181,6.162-0.792,8.951-8.091,10.966l-70.132,17.095l3.804-113.361l139.044-6.731
			c20.727-0.999,43.899-5.732,55.26,4.88C234.173,347.921,234.122,389.409,232.365,405.788z"/>
		<path id="_3OpticNerve" fill="#B98FB9" stroke="#974678" stroke-width="0.75" d="M23.67,450.659l1.369,7.247
			c23.886-5.595,49.028-11.758,73.017-17.387c5.518-1.36,14.59,8.306,16.716,11.56c-1.119-3.451-7.902-11.629-11.981-12.653
			c2.736-0.111,5.664,1.179,7.78,2.694c2.488,1.773,3.478,5.621,5.457,8.186c-0.637-1.188-1.187-3.279-1.825-4.467
			c0.887,0.31,1.739,1.032,2.617,1.343c-1.136-0.783-2.118-1.791-3.254-2.582c-0.568-1.051-1.222-2.188-2.118-2.944
			c-1.825-1.523-4.596-2.823-6.92-3.666c1.945-0.268,4.639,0.224,6.473,0.843c1.153,0.379,2.031,1.67,3.046,2.351
			c-0.938-1.128-1.67-2.429-2.901-3.193c-1.411-0.861-3.589-1.533-5.344-1.317c1.102-0.817,3.021-2.471,3.459-3.874
			c0.688-2.151,1.016-4.415,1.532-6.618c-1.094,2.599-1.653,5.741-3.546,7.815c-0.758,0.844-3.685,2.014-5.328,1.859
			c3.013-2.066,6.292-6.112,7.238-9.951c0.568-2.28,0.758-3.356,1.154-5.715c-0.328,1.197-1.084,3.254-1.678,4.114
			c-0.361-1.412-0.835-4.854-1.197-6.267c0.121,1.67,0.431,3.357,0.344,5.036c-0.086,1.454,0.207,1.704-0.516,4.148
			c-0.482,1.618-3.383,4.071-5.044,5.019c1.592-1.688,3.314-8.53,2.444-14.909c-0.292,3.082-0.207,12.93-5.75,15.614L23.67,450.659z
			"/>
		<path id="_3NerveLines" fill="none" stroke="#974678" stroke-width="0.75" d="M108.264,427.771
			c-1.067,2.186-5.182,6.258-8.314,6.989l-76.658,17.8 M101.851,435.785l-78.215,18.059 M104.588,438.04
			c-1.472-0.465-3.4-0.568-5.586-0.077l-75.417,17.585"/>
	</g>
	<g id="CGrad">
		<path id="_24497576" fill="#FDF9CA" fill-opacity="0.102" d="M233.261,332.702l3.804,22.052
			c-38.147-1.824-82.992-10.604-112.912,10.347c-18.911,13.238-21.88,29.136-38.011,45.25
			c-10.483,10.457-22.603,10.312-34.05,19.874c-10.639,8.883-0.585,33.173,12.171,34.232c12.145,1.006,20.192,1.351,31.004,6.602
			c14.065,6.834,16.027,18.799,31.555,21.88c42.401,8.418,81.512,6.757,126.959,1.059l3.047,38.484l-234.681-1.773l0.388-197.42
			L233.261,332.702L233.261,332.702z"/>
		<path id="_24496592" fill="#FDF9CA" fill-opacity="0.102" d="M233.261,332.702l6.825,19.815
			c-39.396-1.885-85.722-10.966-116.622,10.673c-19.539,13.686-22.611,30.109-39.267,46.755
			c-10.828,10.812-22.775,11.069-34.602,20.934c-10.983,9.176-0.603,34.274,12.568,35.368c12.549,1.041,20.296,0.981,31.451,6.404
			c14.53,7.049,16.561,19.426,32.596,22.603c43.803,8.702,84.198,6.98,131.152,1.093l-0.534,36.135l-234.681-1.773l0.388-197.42
			L233.261,332.702z"/>
		<path id="_24495608" fill="#FDF9CA" fill-opacity="0.149" d="M233.261,332.702l9.674,17.697
			c-40.576-1.936-88.294-11.293-120.134,11c-20.125,14.099-23.284,31.013-40.446,48.15c-11.155,11.138-22.896,11.465-35.067,21.639
			c-11.327,9.451-0.628,35.3,12.937,36.427c12.928,1.076,20.339,0.956,31.839,6.542c14.959,7.265,17.06,20.004,33.569,23.274
			c45.128,8.969,86.737,7.195,135.102,1.128l-3.908,33.922l-234.681-1.773l0.388-197.42L233.261,332.702z"/>
		<path id="_24494624" fill="#FDF9CA" fill-opacity="0.102" d="M233.261,332.702l13.143,15.132
			c-42.021-2.014-91.437-11.689-124.403,11.396c-20.83,14.581-24.11,32.106-41.884,49.854
			c-11.542,11.534-23.188,11.947-35.798,22.474c-11.723,9.787-0.646,36.556,13.402,37.727c13.384,1.102,20.546,0.912,32.45,6.696
			c15.493,7.523,17.671,20.71,34.774,24.102c46.721,9.278,89.81,7.445,139.888,1.17l-8.005,31.229l-234.681-1.773l0.388-197.42
			L233.261,332.702z"/>
		<path id="_24489472" fill="#FDF9CA" fill-opacity="0.149" d="M233.261,332.702l15.751,13.195
			c-43.105-2.057-93.787-11.99-127.605,11.689c-21.372,14.969-24.737,32.941-42.968,51.146c-11.844,11.835-24.333,12.3-37.27,23.11
			c-12.024,10.036-0.663,37.494,13.746,38.69c13.738,1.145,21.623,0.887,33.836,6.817c15.898,7.721,18.118,21.251,35.661,24.729
			c47.935,9.52,92.133,7.635,143.502,1.197l-11.086,29.205l-234.681-1.773l0.388-197.42L233.261,332.702z"/>
		<path id="_24488488" fill="#FDF9CA" fill-opacity="0.2" d="M233.261,332.702l18.221,11.371
			c-44.13-2.109-96.024-12.274-130.643,11.964c-21.889,15.33-25.323,33.724-43.993,52.359
			c-12.119,12.119-24.703,12.979-37.94,24.049c-12.309,10.277-0.68,38.389,14.081,39.611c14.048,1.171,21.915,0.517,34.421,6.594
			c16.277,7.9,18.549,21.751,36.513,25.322c49.071,9.735,94.321,7.808,146.912,1.214l-14.005,27.295l-234.681-1.773l0.388-197.42
			L233.261,332.702z"/>
		<path id="_24487504" fill="#FDF9CA" fill-opacity="0.251" d="M233.261,332.702l21.079,9.185
			c-45.361-2.169-98.701-12.619-134.276,12.3C97.573,369.938,94.035,388.84,74.85,408c-12.455,12.446-25.393,13.342-39,24.704
			c-12.645,10.57-0.697,39.456,14.469,40.721c14.443,1.196,22.534,0.543,35.385,6.774c16.725,8.125,19.065,22.362,37.52,26.029
			c50.439,10.01,96.954,8.03,151.009,1.256l-17.405,24.997l-234.681-1.773l0.388-197.42L233.261,332.702z"/>
		<path id="_24486520" fill="#FDF9CA" fill-opacity="0.251" d="M233.261,332.702l23.326,7.454
			c-46.325-2.203-100.793-12.876-137.133,12.567c-22.965,16.079-26.58,35.394-46.17,54.967
			c-12.73,12.705-25.942,13.626-39.835,25.237c-12.928,10.785-0.714,40.291,14.771,41.573c14.752,1.23,23.016,0.551,36.142,6.921
			c17.085,8.298,19.479,22.844,38.33,26.579c51.506,10.226,99.002,8.212,154.21,1.291l-20.073,23.189l-234.681-1.773l0.388-197.42
			L233.261,332.702z"/>
		<path id="_24484816" fill="#FDF9CA" fill-opacity="0.302" d="M233.261,332.702l23.326,7.454
			c-46.325-2.203-100.793-12.876-137.133,12.567c-22.965,16.079-26.58,35.394-46.17,54.967
			c-12.73,12.705-25.942,13.626-39.835,25.237c-12.928,10.785-0.714,40.291,14.771,41.573c14.752,1.23,23.016,0.551,36.142,6.921
			c17.085,8.298,19.479,22.844,38.33,26.579c51.506,10.226,99.002,8.212,154.21,1.291l-20.073,23.189l-234.681-1.773l0.388-197.42
			L233.261,332.702z"/>
		<path id="_24484416" fill="#FDF9CA" d="M233.691,325.274l24.635,13.557c-47.074-2.237-102.419-13.083-139.337,12.765
			c-23.344,16.346-27.01,35.97-46.919,55.853c-12.937,12.911-26.355,13.841-40.48,25.633c-13.118,10.966-0.723,40.955,15.02,42.254
			c14.986,1.249,23.387,0.56,36.72,7.033c17.36,8.426,19.788,23.205,38.94,27.01c52.341,10.38,95.12,8.332,151.206,1.291
			l-16.646,21.812l-234.681-1.773l0.388-204.427L233.691,325.274z"/>
	</g>
	<text id="LabelC" transform="matrix(1 0 0 1 29.833 307.2896)" fill="#201B17" font-family="'Georgia-Italic'" font-size="14">c) “Pinhole” eye allows finer directional</text>
	<text id="LabelC_1_" transform="matrix(1 0 0 1 29.833 323.9331)" fill="#201B17" font-family="'Georgia-Italic'" font-size="14">     sensitivity and limited imaging</text>
	<g id="BDiag">
		<path id="_2Retina" fill="#FBED26" stroke="#F6C314" d="M407.836,167.733c1.369-1.222,3.047-5.182,2.531-8.108
			c1.188-13.729,15.105-21.028,27.457-27.991c16.784-9.561,27.397-6.422,53.71-7.695l-27.518-35.626
			c-23.369,4.601-61.07,44.491-71.639,62.877c-0.629,3.348,0.955,4.751,0.326,8.108c2.221,8.539,4.441,17.085,6.653,25.633
			c13.644,11.345,21.983,40.093,35.617,51.446l59.168-32.82c-23.972-1.825-29.146-5.792-51.43-10.311
			c-12.67-2.574-18.601-6.955-28.025-17.697C413.742,172.69,411.452,168.748,407.836,167.733z"/>
		<path id="_2Body" fill="#DEDEDD" stroke="#ABA9A9" d="M492.87,231.875c-13.445,15.563,0.594,24.592-27.846,27.458
			c-40.42,4.071-86.688-4.966-118.415-1.927c-38.407-85.661-34.573-99.106,3.79-184.665c31.718,3.034,80.221-4.747,118.326-7.635
			c28.491-2.156,11.491,17.107,24.945,32.674c5.474,6.343,18.746,37.279-4.063,27.139c-9.949-4.424-21.949-11.327-38.234-10.001
			c-40.781,3.331-52.936,50.095-53.969,50.095c-1.145,1.661-3.201,2.831-6.782,3.821l-0.413,0.104l1.403,6.455l0.404-0.103
			c5.087-0.224,9.099,1.102,11.216,3.787c18.721,17.56,19.082,20.435,45.774,25.685c16.035,3.15,29.858,4.398,39.809-0.026
			C511.625,194.605,498.352,225.541,492.87,231.875z"/>
		<path id="_2OpticNerve" fill="#B98FB9" stroke="#974678" stroke-width="0.75" d="M319.782,185.12l1.378,7.248
			c23.877-5.595,49.027-11.757,73.008-17.387c5.526-1.359,18.523,11.784,21.416,14.745c-2.083-3.451-12.602-14.813-16.673-15.846
			c2.729-0.104,5.655,1.188,7.772,2.703c2.496,1.765,3.977,5.13,5.947,7.695c-0.637-1.188-1.195-3.279-1.824-4.466
			c0.887,0.318,1.73,1.032,2.617,1.351c-1.137-0.792-2.118-1.808-3.254-2.582c-0.56-1.067-1.713-1.704-2.607-2.462
			c-1.817-1.532-4.589-2.823-6.922-3.675c1.955-0.267,4.648,0.232,6.481,0.852c1.145,0.379,2.031,1.67,3.048,2.341
			c-0.938-1.126-1.67-2.427-2.901-3.184c-1.411-0.861-3.598-1.533-5.354-1.326c1.102-0.81,3.821-2.307,4.27-3.709
			c0.68-2.152,1.962-4.408,2.47-6.619c-1.084,2.599-3.399,5.577-5.285,7.66c-0.766,0.843-3.683,2.014-5.327,1.858
			c3.013-2.065,7.962-8.176,9.95-11.559c1.145-1.945,1.455-3.659,1.842-6.016c-0.327,1.188-2.066,4.131-2.651,4.992
			c-0.361-1.403-0.61-5.69-0.224-7.308c-1.136,1.678-0.835,3.348-0.93,5.035c-0.077,1.446,0.207,1.704-0.516,4.149
			c-0.482,1.618-5.51,6.146-7.18,7.092c1.602-1.687,6.112-6.903,6.06-13.281c-0.809,3.073-3.821,11.301-9.364,13.986L319.782,185.12
			L319.782,185.12z"/>
		<path id="_2NerveLines" fill="none" stroke="#974678" stroke-width="0.75" d="M406.158,161.278
			c-1.075,2.186-6.963,7.212-10.097,7.935l-76.657,17.81 M397.972,170.246l-78.225,18.059 M400.709,172.502
			c-1.472-0.465-3.409-0.568-5.595-0.086l-75.418,17.593"/>
	</g>
	<g id="BGrad">
		<path id="_24399728" fill="#FDF9CA" fill-opacity="0.102" d="M506.065,70.198l3.322,21.505
			c-33.371-1.778-72.612-10.346-98.779,10.079c-16.552,12.911-19.151,28.413-33.259,44.122c-9.176,10.2-19.78,10.053-29.781,19.367
			c-9.313,8.658-0.517,32.346,10.638,33.379c10.622,0.982,17.663,1.317,27.123,6.438c12.3,6.653,14.021,18.325,27.604,21.33
			c37.106,8.211,71.321,6.584,111.087,1.032l2.66,37.511l-205.313-1.721l0.326-192.462L506.065,70.198z"/>
		<path id="_24398744" fill="#FDF9CA" fill-opacity="0.102" d="M506.065,70.198l5.965,19.324
			c-34.474-1.838-74.997-10.686-102.033,10.41c-17.095,13.333-19.779,29.343-34.352,45.568
			c-9.469,10.544-19.927,10.794-30.264,20.416c-9.615,8.943-0.534,33.406,10.991,34.474c10.975,1.015,17.749,0.964,27.518,6.249
			c12.705,6.869,14.487,18.936,28.509,22.035c38.328,8.47,73.662,6.799,114.736,1.059l-0.456,35.229l-205.313-1.721l0.326-192.462
			L506.065,70.198z"/>
		<path id="_24397760" fill="#FDF9CA" fill-opacity="0.149" d="M506.065,70.198l8.47,17.257
			C479.02,85.567,437.274,76.451,409.42,98.18c-17.61,13.742-20.374,30.234-35.395,46.95c-9.742,10.846-20.021,11.172-30.676,21.088
			c-9.898,9.209-0.552,34.412,11.327,35.514c11.311,1.05,17.782,0.93,27.854,6.37c13.083,7.076,14.926,19.505,29.368,22.698
			c39.482,8.736,75.884,7.006,118.197,1.093l-3.417,33.069l-205.313-1.721l0.326-192.462L506.065,70.198z"/>
		<path id="_24396776" fill="#FDF9CA" fill-opacity="0.102" d="M506.065,70.198l11.499,14.757
			c-36.771-1.958-79.998-11.396-108.832,11.108c-18.23,14.223-21.105,31.3-36.65,48.602c-10.105,11.241-20.297,11.646-31.332,21.915
			c-10.242,9.536-0.559,35.634,11.732,36.77c11.715,1.084,17.981,0.896,28.396,6.525c13.549,7.333,15.459,20.193,30.42,23.507
			c40.876,9.046,78.567,7.256,122.38,1.127l-6.998,30.453l-205.313-1.721l0.326-192.462L506.065,70.198z"/>
		<path id="_24469384" fill="#FDF9CA" fill-opacity="0.149" d="M506.065,70.198l13.779,12.872
			c-37.718-2.01-82.054-11.693-111.646,11.392c-18.694,14.594-21.639,32.11-37.588,49.858
			c-10.355,11.534-21.295,11.999-32.613,22.534c-10.52,9.778-0.568,36.547,12.032,37.718c12.017,1.11,18.919,0.861,29.601,6.645
			c13.901,7.522,15.855,20.718,31.203,24.118c41.935,9.27,80.599,7.436,125.547,1.153l-9.7,28.473l-205.313-1.721l0.326-192.462
			L506.065,70.198z"/>
		<path id="_24468400" fill="#FDF9CA" fill-opacity="0.2" d="M506.065,70.198l15.94,11.09
			c-38.612-2.052-84.009-11.968-114.307,11.664c-19.143,14.943-22.155,32.88-38.476,51.042
			c-10.604,11.809-21.621,12.662-33.207,23.447c-10.759,10.019-0.585,37.425,12.325,38.613c12.292,1.136,19.178,0.516,30.118,6.43
			c14.228,7.704,16.226,21.209,31.942,24.677c42.934,9.503,82.51,7.626,128.525,1.188l-12.248,26.614l-205.313-1.721l0.326-192.462
			L506.065,70.198z"/>
		<path id="_24467416" fill="#FDF9CA" fill-opacity="0.251" d="M506.065,70.198l18.437,8.96
			c-39.681-2.113-86.35-12.305-117.475,11.985c-19.676,15.355-22.774,33.792-39.56,52.471
			c-10.896,12.128-22.216,12.998-34.119,24.084c-11.069,10.294-0.611,38.466,12.652,39.697c12.645,1.17,19.72,0.516,30.97,6.602
			c14.633,7.91,16.682,21.803,32.829,25.366c44.121,9.761,84.809,7.833,132.106,1.222l-15.227,24.376l-205.313-1.721l0.326-192.462
			L506.065,70.198L506.065,70.198z"/>
		<path id="_24466432" fill="#FDF9CA" fill-opacity="0.251" d="M506.065,70.198l20.407,7.277
			c-40.531-2.156-88.183-12.562-119.979,12.245c-20.099,15.683-23.257,34.511-40.402,53.585
			c-11.13,12.395-22.69,13.291-34.843,24.601c-11.311,10.518-0.629,39.284,12.928,40.541c12.902,1.188,20.132,0.533,31.614,6.748
			c14.942,8.082,17.034,22.258,33.526,25.909c45.068,9.967,86.626,7.996,134.931,1.247l-17.568,22.612l-205.313-1.721l0.326-192.462
			L506.065,70.198L506.065,70.198z"/>
		<path id="_24366856" fill="#FDF9CA" fill-opacity="0.302" d="M506.065,70.198l20.407,7.277
			c-40.531-2.156-88.183-12.562-119.979,12.245c-20.099,15.683-23.257,34.511-40.402,53.585
			c-11.13,12.395-22.69,13.291-34.843,24.601c-11.311,10.518-0.629,39.284,12.928,40.541c12.902,1.188,20.132,0.533,31.614,6.748
			c14.942,8.082,17.034,22.258,33.526,25.909c45.068,9.967,86.626,7.996,134.931,1.247l-17.568,22.612l-205.313-1.721l0.326-192.462
			L506.065,70.198L506.065,70.198z"/>
		<path id="_24366472" fill="#FDF9CA" d="M504.119,62.963l21.545,13.221c-41.178-2.19-89.595-12.765-121.907,12.437
			c-20.416,15.937-23.628,35.067-41.039,54.442c-11.311,12.602-23.06,13.497-35.412,24.997
			c-11.481,10.69-0.636,39.921,13.136,41.195c13.117,1.214,20.459,0.542,32.122,6.852c15.184,8.211,17.318,22.621,34.068,26.33
			c45.792,10.131,83.217,8.126,132.296,1.265l-14.563,21.26l-210.537-1.721l0.327-199.292L504.119,62.963z"/>
	</g>
	<text id="LabelB" transform="matrix(1 0 0 1 331.3481 35.918)" fill="#201B17" font-family="'Georgia-Italic'" font-size="14">b) Depressed/folded area allows</text>
	<text id="LabelB_1_" transform="matrix(1 0 0 1 331.3481 52.5815)" fill="#201B17" font-family="'Georgia-Italic'" font-size="14">     limited directional sensitivity</text>
	<g id="ADiag">
		<path id="_24360728" fill="#FBED26" stroke="#F6C314" d="M152.557,176.788c0.293,33.19,18.816,65.95,30.333,68.274
			c8.952,1.791,12.945-15.054,5.474-62.877c-2.203-14.073,1.833-44.561,2.204-70.469c0.37-26.394-12.085-38.832-17.887-33.065
			C167.242,84.073,168.998,104.49,152.557,176.788z"/>
		<path id="_24360344" fill="#DEDEDD" stroke="#ABA9A9" d="M184.909,271c-1.084,2.617-83.905,0.739-90.55,0.739l-1.64-218.39
			c17.757,0,60.011-4.231,76.193,1.897c15.7,5.952,28.835,47.84,13.583,69.673c-4.494,6.43-10.097,22.121-9.709,39.663
			c0.327,14.994,7.204,30.556,13.169,44.414C195.44,231.032,194.273,248.656,184.909,271z"/>
		<path id="_24357928" fill="#B98FB9" stroke="#974678" stroke-width="0.75" d="M92.71,171.907l0.835,7.325
			c24.229-3.83,49.759-8.125,74.092-11.981c2.212-0.637,3.788-0.594,6.405,1.48c0.594,0.465,4.114,11.121,5.336,15.046
			c-0.439-4.105-2.668-11.861-2.944-12.894c3.926,3.685,8.832,11.586,10.037,13.798c-0.534-2.186-3.426-7.962-6.852-12.395
			c-2.393-3.081-5.294-5.423-7.179-6.103c2.703,0.31,5.561,1.911,7.567,3.572c2.35,1.945,3.055,5.861,4.845,8.565
			c-0.55-1.24-0.947-3.357-1.498-4.597c0.861,0.379,1.653,1.162,2.514,1.541c-1.077-0.87-1.98-1.954-3.056-2.814
			c-0.491-1.102-1.059-2.272-1.902-3.099c-1.705-1.652-4.373-3.141-6.627-4.166c1.962-0.121,4.613,0.568,6.404,1.326
			c1.11,0.465,1.893,1.815,2.857,2.564c-0.852-1.205-1.48-2.547-2.659-3.391c-1.352-0.973-3.469-1.791-5.242-1.713
			c1.162-0.731,3.977-2.022,4.527-3.391c0.843-2.092,2.29-4.261,2.961-6.412c-1.274,2.496-3.805,5.302-5.835,7.238
			c-0.827,0.783-3.822,1.748-5.458,1.472c3.15-1.842,8.539-7.575,10.777-10.802c1.282-1.86,1.712-3.547,2.272-5.861
			c-0.414,1.162-2.359,3.967-3.013,4.785c-0.259-1.429-0.19-5.732,0.318-7.316c-1.249,1.601-1.077,3.288-1.3,4.958
			c-0.181,1.446,0.086,1.722-0.809,4.105c-0.603,1.576-5.957,5.716-7.678,6.542c1.704-1.558,6.594-6.438,7.006-12.799
			c-1.032,3.013-4.63,10.983-10.363,13.255L92.71,171.907z"/>
		<path id="_24357408" fill="none" stroke="#974678" stroke-width="0.75" d="M180.601,154.451
			c-1.231,2.101-7.471,6.688-10.647,7.188l-77.75,12.136 M171.77,162.809l-79.326,12.274 M174.334,165.245
			c-1.429-0.568-3.348-0.817-5.561-0.482l-76.503,12.024"/>
	</g>
	<g id="AGrad">
		<path id="_24356016" fill="#FDF9CA" fill-opacity="0.102" d="M208.825,272.597c0.215-7.308,7.703-18.273,0.645-21.914
			c-18.377-9.495-60.622,8.53-76.451-4.141c-20.554-16.458-21.191-48.701-20.434-73.43c0.921-29.971-0.233-62.017,23.067-83.488
			c15.193-13.996,80.704,8.281,79.757-11.25l-1.326-27.238H64.47v221.46H208.825z"/>
		<path id="_24355096" fill="#FDF9CA" fill-opacity="0.149" d="M208.825,272.597c2.091-3.339,9.89-14.77,2.539-18.565
			c-19.143-9.882-63.161,8.882-79.653-4.313c-21.407-17.138-22.069-50.741-21.277-76.495c0.947-31.227-0.241-64.606,24.031-86.977
			c15.82-14.581,86.074,8.465,83.079-11.719l-3.46-23.391H64.47v221.46H208.825z"/>
		<path id="_24354176" fill="#FDF9CA" fill-opacity="0.149" d="M208.825,272.597c3.821,0.388,11.921-11.473,4.295-15.398
			c-19.883-10.26-65.554,9.209-82.666-4.493c-22.224-17.784-22.913-52.644-22.086-79.378c0.99-32.397-0.258-67.052,24.944-90.261
			c16.414-15.132,91.867,8.349,86.22-12.167l-5.448-19.763H64.47v221.46H208.825z"/>
		<path id="_24353256" fill="#FDF9CA" fill-opacity="0.149" d="M208.825,272.597c5.483,3.692,13.866-8.547,5.973-12.61
			c-20.589-10.587-67.904,9.52-85.635-4.622c-23.017-18.359-23.73-54.355-22.878-81.942c1.024-33.457-0.259-69.217,25.83-93.176
			c17.017-15.623,98.332,7.717,89.328-12.558l-7.359-16.552H64.47v221.46H208.825z"/>
		<path id="_24352336" fill="#FDF9CA" fill-opacity="0.2" d="M208.825,272.597c7.135,6.723,15.828-5.878,7.643-10.045
			c-21.32-10.896-70.332,9.779-88.682-4.768c-23.843-18.885-24.583-55.897-23.705-84.276c1.067-34.403-0.275-71.192,26.761-95.838
			c17.619-16.062,105.561,6.283,92.503-12.911l-9.261-13.622H64.47v221.46H208.825z"/>
		<path id="_24351432" fill="#FDF9CA" fill-opacity="0.251" d="M208.825,272.597c8.736,8.987,17.722-3.864,9.261-8.134
			c-22.06-11.121-72.767,9.984-91.763-4.854c-24.669-19.281-25.426-57.067-24.522-86.04c1.102-35.118-0.275-72.672,27.69-97.827
			c18.23-16.402,112.663,4.218,95.714-13.183l-11.121-11.422H64.47v221.46H208.825z"/>
		<path id="_24347256" fill="#FDF9CA" fill-opacity="0.302" d="M208.825,272.597c10.044,11.354,19.289-1.772,10.578-6.128
			c-22.689-11.353-74.824,10.2-94.354-4.966c-25.366-19.677-26.149-58.281-25.22-87.865c1.136-35.876-0.284-74.227,28.473-99.92
			c18.748-16.75,119.006,1.387,98.426-13.466l-12.644-9.115H64.47v221.46H208.825z"/>
		<path id="_24350632" fill="#FDF9CA" fill-opacity="0.302" d="M208.825,272.597c11.448,13.29,20.967-0.06,11.998-4.493
			c-23.386-11.542-77.114,10.372-97.255-5.044c-26.132-20.029-26.942-59.279-25.986-89.371
			c1.162-36.478-0.293-75.487,29.343-101.619c19.324-17.034,125.092-1.705,101.447-13.694l-14.288-7.239H64.47v221.46H208.825z"/>
		<path id="_24350336" fill="#FDF9CA" d="M208.609,277.989c12.523,15.993,22.483-3.06,13.308-7.604
			c-23.929-11.81-78.93,10.622-99.537-5.156c-26.752-20.494-27.578-60.674-26.597-91.462c1.197-37.331-0.292-77.26,30.032-104
			c19.771-17.434,130.205-6.184,103.822-14.017l-15.553-4.613H64.47l0.139,226.603L208.609,277.989z"/>
	</g>
	<text id="LabelA" transform="matrix(1 0 0 1 44.8867 35.918)" fill="#201B17" font-family="'Georgia-Italic'" font-size="14">a) Region of photosensitive cells</text>
	<text transform="matrix(1 0 0 1 203.8447 122.1855)" fill="#201B17" font-family="'Arial-ItalicMT'" font-size="12.5631">Photoreceptors</text>
	<text transform="matrix(1 0 0 1 36.6816 149.7466)" fill="#201B17" font-family="'Arial-ItalicMT'" font-size="12.5631">Nerve</text>
	<text transform="matrix(1 0 0 1 36.6816 163.8691)" fill="#201B17" font-family="'Arial-ItalicMT'" font-size="12.5631">fibres</text>
	<line fill="none" stroke="#201B17" x1="225.781" y1="125.315" x2="185.705" y2="137.831"/>
	<line fill="none" stroke="#201B17" x1="119.953" y1="171.021" x2="71.504" y2="161.698"/>
	<text transform="matrix(1 0 0 1 34.3271 355.2876)" fill="#201B17" font-family="'Arial-ItalicMT'" font-size="12.5631">Water-filled</text>
	<text transform="matrix(1 0 0 1 34.3271 369.4253)" fill="#201B17" font-family="'Arial-ItalicMT'" font-size="12.5631">chamber</text>
	<line fill="none" stroke="#201B17" x1="142.504" y1="402.079" x2="86.192" y2="368.019"/>
	<text transform="matrix(1 0 0 1 46.708 502.9043)" fill="#201B17" font-family="'Arial-ItalicMT'" font-size="12.5631">Area of</text>
	<text transform="matrix(1 0 0 1 46.708 517.043)" fill="#201B17" font-family="'Arial-ItalicMT'" font-size="12.5631">photoreceptors/</text>
	<text transform="matrix(1 0 0 1 46.708 531.168)" fill="#201B17" font-family="'Arial-ItalicMT'" font-size="12.5631">retina</text>
	<line fill="none" stroke="#201B17" x1="131.856" y1="470.955" x2="91.658" y2="500.219"/>
	<text transform="matrix(1 0 0 1 326.5962 502.9043)" fill="#201B17" font-family="'Arial-ItalicMT'" font-size="12.5631">Transparent</text>
	<text transform="matrix(1 0 0 1 326.5962 517.043)" fill="#201B17" font-family="'Arial-ItalicMT'" font-size="12.5631">humor</text>
	<text transform="matrix(1 0 0 1 330.9634 371.397)" fill="#201B17" font-family="'Arial-ItalicMT'" font-size="12.5631">Retina</text>
	<line fill="none" stroke="#201B17" x1="398.609" y1="392.06" x2="364.251" y2="374.168"/>
	<line fill="none" stroke="#201B17" x1="441.819" y1="457.184" x2="385.088" y2="494.069"/>
	<text transform="matrix(1 0 0 1 241.4346 638.1621)" fill="#201B17" font-family="'Arial-ItalicMT'" font-size="12.5631">Cornea</text>
	<text transform="matrix(1 0 0 1 251.4609 752.7549)" fill="#201B17" font-family="'Arial-ItalicMT'" font-size="12.5631">Lens</text>
	<line fill="none" stroke="#201B17" x1="249.581" y1="640.03" x2="228.285" y2="649.421"/>
	<line fill="none" stroke="#201B17" x1="250.829" y1="746.479" x2="222.02" y2="707.031"/>
	<text transform="matrix(1 0 0 1 334.1021 748.3672)" fill="#201B17" font-family="'Arial-ItalicMT'" font-size="12.5631">Optic</text>
	<text transform="matrix(1 0 0 1 334.1021 762.5039)" fill="#201B17" font-family="'Arial-ItalicMT'" font-size="12.5631">nerve</text>
	<text transform="matrix(1 0 0 1 383.5825 786.5674)" fill="#201B17" font-family="'Arial-ItalicMT'" font-size="12.5631">Retina</text>
	<text transform="matrix(1 0 0 1 474.9985 782.1807)" fill="#201B17" font-family="'Arial-ItalicMT'" font-size="12.5631">Vitreous</text>
	<text transform="matrix(1 0 0 1 474.9985 796.3193)" fill="#201B17" font-family="'Arial-ItalicMT'" font-size="12.5631">humor</text>
	<text transform="matrix(1 0 0 1 500.6753 626.2705)" fill="#201B17" font-family="'Arial-ItalicMT'" font-size="12.5631">Lens</text>
	<text transform="matrix(1 0 0 1 527.6001 759.0059)" fill="#201B17" font-family="'Arial-ItalicMT'" font-size="12.5631">Iris</text>
	<text transform="matrix(1 0 0 1 538.2407 719.5537)" fill="#201B17" font-family="'Arial-ItalicMT'" font-size="12.5631">Cornea</text>
	<text transform="matrix(1 0 0 1 527.6001 648.8047)" fill="#201B17" font-family="'Arial-ItalicMT'" font-size="12.5631">Aqueous</text>
	<text transform="matrix(1 0 0 1 527.6001 662.9297)" fill="#201B17" font-family="'Arial-ItalicMT'" font-size="12.5631">humor</text>
	<line fill="none" stroke="#201B17" x1="418.019" y1="747.734" x2="403.619" y2="775.279"/>
	<line fill="none" stroke="#201B17" x1="364.799" y1="713.917" x2="356.029" y2="737.717"/>
	<line fill="none" stroke="#201B17" x1="448.076" y1="731.45" x2="475" y2="774.031"/>
	<line fill="none" stroke="#201B17" x1="508.065" y1="719.521" x2="526.98" y2="750.23"/>
	<line fill="none" stroke="#201B17" x1="506.306" y1="628.764" x2="500.676" y2="684.487"/>
	<line fill="none" stroke="#201B17" x1="530.105" y1="665.707" x2="514.448" y2="690.754"/>
	<line fill="none" stroke="#201B17" x1="536.363" y1="714.546" x2="523.218" y2="708.279"/>
</g>
</svg>
