<?xml version="1.0" encoding="utf-8"?>
<svg width="2000" height="1200" viewBox="-50 -600 2000 1200" xmlns="http://www.w3.org/2000/svg">
<path style="fill:#cef" d="M200,-600A1000,1000 0 0 0 200,600z"/>
<g style="fill:none;stroke:#000;stroke-opacity:.1;stroke-width:2">
<path d="M-50,-594H196L200,-593L3080,593"/>
<path d="M-50,-582H187L200,-579L3099,579"/>
<path d="M-50,-570H178L200,-565L3117,565"/>
<path d="M-50,-558H170L200,-551L3134,551"/>
<path d="M-50,-546H162L200,-537L3151,537"/>
<path d="M-50,-534H155L200,-524L3168,524"/>
<path d="M-50,-522H147L200,-510L3184,510"/>
<path d="M-50,-510H140L200,-497L3199,497"/>
<path d="M-50,-498H133L200,-484L3213,484"/>
<path d="M-50,-486H126L200,-471L3228,471"/>
<path d="M-50,-474H119L200,-458L3241,458"/>
<path d="M-50,-462H113L200,-446L3255,446"/>
<path d="M-50,-450H107L200,-433L3267,433"/>
<path d="M-50,-438H101L200,-420L3280,420"/>
<path d="M-50,-426H95L200,-408L3291,408"/>
<path d="M-50,-414H90L200,-396L3303,396"/>
<path d="M-50,-402H84L200,-383L3314,383"/>
<path d="M-50,-390H79L200,-371L3324,371"/>
<path d="M-50,-378H74L200,-359L3335,359"/>
<path d="M-50,-366H69L200,-347L3344,347"/>
<path d="M-50,-354H65L200,-335L3354,335"/>
<path d="M-50,-342H60L200,-323L3363,323"/>
<path d="M-50,-330H56L200,-311L3371,311"/>
<path d="M-50,-318H52L200,-300L3380,300"/>
<path d="M-50,-306H48L200,-288L3388,288"/>
<path d="M-50,-294H44L200,-276L3395,276"/>
<path d="M-50,-282H41L200,-265L3402,265"/>
<path d="M-50,-270H37L200,-253L3409,253"/>
<path d="M-50,-258H34L200,-241L3416,241"/>
<path d="M-50,-246H31L200,-230L3422,230"/>
<path d="M-50,-234H28L200,-219L3428,219"/>
<path d="M-50,-222H25L200,-207L3434,207"/>
<path d="M-50,-210H22L200,-196L3439,196"/>
<path d="M-50,-198H20L200,-184L3444,184"/>
<path d="M-50,-186H17L200,-173L3449,173"/>
<path d="M-50,-174H15L200,-162L3453,162"/>
<path d="M-50,-162H13L200,-151L3457,151"/>
<path d="M-50,-150H11L200,-139L3461,139"/>
<path d="M-50,-138H10L200,-128L3464,128"/>
<path d="M-50,-126H8L200,-117L3468,117"/>
<path d="M-50,-114H7L200,-106L3470,106"/>
<path d="M-50,-102H5L200,-95L3473,95"/>
<path d="M-50,-90H4L200,-83L3475,83"/>
<path d="M-50,-78H3L200,-72L3477,72"/>
<path d="M-50,-66H2L200,-61L3479,61"/>
<path d="M-50,-54H1L200,-50L3480,50"/>
<path d="M-50,-42H1L200,-39L3482,39"/>
<path d="M-50,-30H0L200,-28L3482,28"/>
<path d="M-50,-18H0L200,-17L3483,17"/>
<path d="M-50,-6H0L200,-6L3483,6"/>
<path d="M-50,6H0L200,6L3483,-6"/>
<path d="M-50,18H0L200,17L3483,-17"/>
<path d="M-50,30H0L200,28L3482,-28"/>
<path d="M-50,42H1L200,39L3482,-39"/>
<path d="M-50,54H1L200,50L3480,-50"/>
<path d="M-50,66H2L200,61L3479,-61"/>
<path d="M-50,78H3L200,72L3477,-72"/>
<path d="M-50,90H4L200,83L3475,-83"/>
<path d="M-50,102H5L200,95L3473,-95"/>
<path d="M-50,114H7L200,106L3470,-106"/>
<path d="M-50,126H8L200,117L3468,-117"/>
<path d="M-50,138H10L200,128L3464,-128"/>
<path d="M-50,150H11L200,139L3461,-139"/>
<path d="M-50,162H13L200,151L3457,-151"/>
<path d="M-50,174H15L200,162L3453,-162"/>
<path d="M-50,186H17L200,173L3449,-173"/>
<path d="M-50,198H20L200,184L3444,-184"/>
<path d="M-50,210H22L200,196L3439,-196"/>
<path d="M-50,222H25L200,207L3434,-207"/>
<path d="M-50,234H28L200,219L3428,-219"/>
<path d="M-50,246H31L200,230L3422,-230"/>
<path d="M-50,258H34L200,241L3416,-241"/>
<path d="M-50,270H37L200,253L3409,-253"/>
<path d="M-50,282H41L200,265L3402,-265"/>
<path d="M-50,294H44L200,276L3395,-276"/>
<path d="M-50,306H48L200,288L3388,-288"/>
<path d="M-50,318H52L200,300L3380,-300"/>
<path d="M-50,330H56L200,311L3371,-311"/>
<path d="M-50,342H60L200,323L3363,-323"/>
<path d="M-50,354H65L200,335L3354,-335"/>
<path d="M-50,366H69L200,347L3344,-347"/>
<path d="M-50,378H74L200,359L3335,-359"/>
<path d="M-50,390H79L200,371L3324,-371"/>
<path d="M-50,402H84L200,383L3314,-383"/>
<path d="M-50,414H90L200,396L3303,-396"/>
<path d="M-50,426H95L200,408L3291,-408"/>
<path d="M-50,438H101L200,420L3280,-420"/>
<path d="M-50,450H107L200,433L3267,-433"/>
<path d="M-50,462H113L200,446L3255,-446"/>
<path d="M-50,474H119L200,458L3241,-458"/>
<path d="M-50,486H126L200,471L3228,-471"/>
<path d="M-50,498H133L200,484L3213,-484"/>
<path d="M-50,510H140L200,497L3199,-497"/>
<path d="M-50,522H147L200,510L3184,-510"/>
<path d="M-50,534H155L200,524L3168,-524"/>
<path d="M-50,546H162L200,537L3151,-537"/>
<path d="M-50,558H170L200,551L3134,-551"/>
<path d="M-50,570H178L200,565L3117,-565"/>
<path d="M-50,582H187L200,579L3099,-579"/>
<path d="M-50,594H196L200,593L3080,-593"/>
</g>
<switch class="Q2913798" transform="translate(1400,450)" font-family="Times New Roman, serif" font-size="96px" font-style="italic" text-anchor="middle">
  <text systemLanguage="en">Spherical aberration</text>
  <text systemLanguage="bg">Сферична аберация</text>
  <text systemLanguage="cs">sférická aberace</text>
  <text systemLanguage="de">sphärische Aberration</text>
  <text systemLanguage="es">aberración esférica</text>
  <text systemLanguage="fa">ابیراهی کروی</text>
  <text systemLanguage="fr">aberration géométrique</text>
  <text systemLanguage="he">אברציה כדורית</text>
  <text systemLanguage="hr">Sferna aberacija</text>
  <text systemLanguage="it">Aberrazione sferica</text>
  <text systemLanguage="pl">aberracja sferyczna</text>
  <text systemLanguage="pt">aberração esférica</text>
  <text systemLanguage="ro">Aberație de sfericitate</text>
  <text systemLanguage="ru">Сферическая аберрация</text>
  <text systemLanguage="sr">Сферна аберација</text>
  <text systemLanguage="ta">கோளப் பிறழ்ச்சி</text>
  <text systemLanguage="uk">Сферична аберація</text>
  <text systemLanguage="vi">Cầu sai</text>
  <text systemLanguage="zh-hans ,qcs">球面像差</text>
  <text systemLanguage="zh-hant ,qct">球面像差</text>
  <text>Spherical aberration</text>
</switch>
</svg>
