<?xml version="1.0" encoding="UTF-8" standalone="no"?>
<!-- Created with Inkscape (http://www.inkscape.org/) -->
<svg
   xmlns:svg="http://www.w3.org/2000/svg"
   xmlns="http://www.w3.org/2000/svg"
   version="1.0"
   width="414.99701"
   height="250"
   viewBox="0 0 414.997 250"
   id="svg2"
   xml:space="preserve"
   style="overflow:visible"><defs
   id="defs70">
		
		
		
		
		
		
		
		
		
		
		
		
		
	</defs>
	<path
   d="M 29.036,125.31 L 399.362,125.31"
   id="path7"
   style="fill:#ffffff;stroke:#000000;stroke-width:0.5;stroke-dasharray:6, 3" /><path
   d="M 115.488,123.037 C 115.488,152.46 119.817,180.865 127.83,207.682 L 136.486,207.682 C 144.068,181.535 148.152,153.901 148.152,125.309 C 148.152,96.716 144.064,69.084 136.478,42.937 L 127.861,42.937 C 120.697,68.412 115.488,95.273 115.488,123.037 z"
   id="path9"
   style="opacity:0.75;fill:#cce2ef;stroke:#000000;stroke-width:0.75" /><path
   d=""
   id="path11"
   style="fill:none;stroke:#ff0000" /><path
   d=""
   id="path13"
   style="fill:none;stroke:#ff0000" /><path
   d="M 131.958,27.051 L 131.958,226.977"
   id="path15"
   style="fill:#ffffff;stroke:#000000;stroke-width:0.25" /><path
   d="M 333.652,89.729 L 140.179,193.667 L 125.846,198.083 L 60.444,198.083"
   id="path57"
   style="fill:none;stroke:#ff0000" /><path
   d="M 59.736,197.362 L 124.949,197.362 L 140.572,191.987 L 328.861,76.307"
   id="path59"
   style="fill:none;stroke:#008837" /><path
   d="M 59.736,196.642 L 124.763,196.642 L 140.958,190.295 L 322.028,64.474"
   id="path61"
   style="fill:none;stroke:#0a55a3" /><path
   d="M 333.652,160.891 L 140.179,56.953 L 125.846,52.537 L 60.444,52.537"
   id="path63"
   style="fill:none;stroke:#ff0000" /><path
   d="M 59.736,53.257 L 124.949,53.257 L 140.572,58.632 L 328.861,174.313"
   id="path65"
   style="fill:none;stroke:#008837" /><path
   d="M 59.736,53.977 L 124.763,53.977 L 140.958,60.324 L 322.028,186.145"
   id="path67"
   style="fill:none;stroke:#0a55a3" />
</svg>